<svg id="Layer_1" data-name="Layer 1" xmlns="http://www.w3.org/2000/svg" viewBox="0 0 131.06 85.24"><defs><style>.cls-1{fill:#fff;}</style></defs><title>logo</title><polygon class="cls-1" points="121.96 57.77 119.32 37.62 95.55 12.99 84.59 34.85 75.96 13.17 60.49 0 41.8 37.27 28.61 20.14 0 77.22 2.68 78.57 29.62 24.85 29.58 40.66 37.92 52.18 29.99 62.53 53.48 85.24 43.72 56.31 48.41 45.84 43.84 39.91 60.87 5.95 57.83 25.03 64.41 35.63 62.09 53.74 75.49 39.62 86.08 38.58 96.53 17.74 100.25 47.77 86.4 54.34 80.29 85.24 105.9 64.44 131.06 75.53 121.96 57.77"/></svg>